<svg xmlns="http://www.w3.org/2000/svg" xmlns:xlink="http://www.w3.org/1999/xlink" xml:space="preserve" version="1.1" style="shape-rendering:geometricPrecision;text-rendering:geometricPrecision;image-rendering:optimizeQuality;" viewBox="0 0 1707 2133.75" x="0px" y="0px" fill-rule="evenodd" clip-rule="evenodd"><defs><style type="text/css">
   
    .fil2 {fill:none}
    .fil1 {fill:black}
    .fil0 {fill:black;fill-rule:nonzero}
   
  </style></defs><g><path class="fil0" d="M1371 783l-1071 0c-11,0 -20,9 -20,20 0,11 9,20 20,20l1071 0c67,0 128,-27 171,-71 44,-44 71,-105 71,-172 0,-67 -27,-127 -71,-171 -43,-44 -104,-71 -171,-71 -67,0 -128,27 -172,71 -43,44 -71,104 -71,171 0,11 9,20 20,20 11,0 20,-9 20,-20 0,-56 23,-106 60,-143 36,-37 87,-59 143,-59 56,0 106,22 143,59 37,37 59,87 59,143 0,56 -22,107 -59,143 -37,37 -87,60 -143,60z"/><path class="fil0" d="M830 1026l-673 0c-12,0 -20,9 -20,20 0,11 8,20 20,20l673 0c34,0 64,13 85,35 22,22 36,52 36,85 0,33 -14,63 -36,85 -21,22 -51,35 -85,35 -33,0 -63,-13 -84,-35 -22,-22 -36,-52 -36,-85 0,-11 -9,-20 -20,-20 -11,0 -20,9 -20,20 0,44 18,84 47,113 29,29 69,47 113,47 45,0 85,-18 114,-47 29,-29 47,-69 47,-113 0,-44 -18,-84 -47,-113 -29,-29 -69,-47 -114,-47z"/><path class="fil0" d="M670 419c0,11 9,20 20,20 11,0 20,-9 20,-20 0,-33 14,-63 36,-85 21,-21 51,-35 84,-35 34,0 64,14 85,35 22,22 36,52 36,85 0,34 -14,64 -36,85 -21,22 -51,35 -85,35l-673 0c-12,0 -20,9 -20,20 0,12 8,20 20,20l673 0c45,0 85,-17 114,-46 29,-29 47,-69 47,-114 0,-44 -18,-84 -47,-113 -29,-29 -69,-47 -114,-47 -44,0 -84,18 -113,47 -29,29 -47,69 -47,113z"/><path class="fil0" d="M1358 1042c-20,-10 -41,-15 -63,-15 -53,0 -102,28 -127,73 -11,19 -18,41 -19,63 19,9 41,14 63,14 52,1 101,-27 127,-73 11,-19 18,-40 19,-62zm-63 -55c32,0 64,9 92,25 9,5 11,12 11,21 0,32 -8,63 -24,91 -33,58 -95,94 -162,93 -33,0 -65,-9 -93,-25 -10,-5 -11,-14 -10,-23 0,-31 9,-62 24,-89 33,-58 95,-93 162,-93z"/><path class="fil0" d="M437 258c35,0 63,28 63,63 0,35 -28,63 -63,63 -35,0 -63,-28 -63,-63 0,-35 28,-63 63,-63zm0 40c-13,0 -23,10 -23,23 0,13 10,23 23,23 13,0 23,-10 23,-23 0,-13 -10,-23 -23,-23z"/><path class="fil0" d="M391 1265c11,4 22,6 33,6 31,1 60,-16 75,-43 5,-10 9,-20 10,-32 -10,-4 -21,-6 -32,-6 -15,0 -30,3 -44,11 -13,8 -24,19 -31,32 -6,10 -9,20 -11,32zm33 46c-22,0 -44,-6 -62,-17 -10,-4 -11,-12 -11,-21 0,-21 6,-42 16,-60 11,-19 26,-35 46,-46 20,-12 42,-17 64,-17 22,0 43,6 62,17 10,5 11,12 11,22 -1,21 -6,41 -16,59 -23,39 -65,63 -110,63z"/><path class="fil1" d="M284 458c0,-56 -18,-89 -43,-106 -14,-9 -29,-14 -45,-14 -6,0 -12,0 -18,1 -2,-3 -4,-6 -7,-9 -13,-15 -30,-27 -54,-33 -27,-7 -62,-4 -105,14 -10,4 -15,16 -10,26 4,10 15,15 26,11 34,-15 60,-17 80,-12 12,3 22,9 29,16 -28,14 -51,38 -54,60 -2,13 3,25 12,35 6,6 15,11 23,14 9,3 19,4 28,3 15,-1 30,-9 39,-24 9,-15 13,-37 9,-59l0 -3 1 0c9,0 17,2 24,7 15,10 25,32 25,73 0,11 9,20 20,20 11,0 20,-9 20,-20zm-161 -40c1,-10 14,-22 32,-30l0 0c2,12 0,24 -4,31 -2,3 -6,5 -9,6 -4,0 -7,-1 -11,-2 -3,-1 -6,-2 -7,-4 -1,-1 -1,-1 -1,-1z"/><path class="fil1" d="M1422 875c0,56 18,89 44,106 13,9 29,14 45,14 6,0 12,0 18,-1 2,3 4,6 6,9 13,15 31,27 54,33 28,7 63,4 105,-14 11,-4 15,-16 11,-26 -4,-10 -16,-15 -26,-11 -34,15 -60,17 -80,12 -12,-3 -22,-8 -29,-16 28,-14 50,-38 54,-60 2,-13 -3,-25 -12,-35 -7,-6 -15,-11 -24,-14 -8,-3 -18,-4 -27,-3 -15,2 -30,9 -39,24 -10,15 -13,37 -10,59l1 3 -1 0c-9,0 -17,-2 -24,-7 -15,-10 -26,-32 -26,-73 0,-11 -9,-20 -20,-20 -11,0 -20,9 -20,20zm162 41c-1,9 -15,21 -32,30l0 -1c-2,-12 -1,-24 4,-31 2,-3 5,-5 9,-5 3,-1 7,0 10,1 4,1 6,2 8,4 1,1 1,1 1,2z"/><path class="fil1" d="M1319 1305c0,57 -18,90 -43,107 -14,9 -30,13 -46,14 -6,0 -12,-1 -18,-1 -2,3 -4,5 -6,8 -13,16 -31,28 -54,34 -28,6 -62,4 -105,-14 -10,-4 -15,-16 -11,-26 4,-10 16,-15 26,-11 34,14 61,17 80,12 13,-3 22,-9 30,-16 -29,-15 -51,-38 -54,-60 -2,-14 3,-26 12,-35 6,-7 14,-12 23,-15 9,-2 18,-4 28,-3 15,2 29,9 38,24 10,16 13,37 10,59l-1 4 1 0c9,0 17,-3 24,-7 15,-10 26,-33 26,-74 0,-11 9,-20 20,-20 11,0 20,9 20,20zm-162 41c2,10 15,22 32,30l0 0c3,-13 1,-24 -4,-32 -2,-3 -5,-5 -9,-5 -3,0 -7,0 -10,1 -3,1 -6,3 -8,5 0,0 -1,1 -1,1z"/><path class="fil0" d="M1105 237c35,0 63,28 63,63 0,35 -28,63 -63,63 -35,0 -63,-28 -63,-63 0,-35 28,-63 63,-63zm0 40c-13,0 -23,10 -23,23 0,13 10,23 23,23 13,0 23,-10 23,-23 0,-13 -10,-23 -23,-23z"/><path class="fil0" d="M171 811c35,0 63,29 63,64 0,34 -28,63 -63,63 -35,0 -63,-29 -63,-63 0,-35 28,-64 63,-64zm0 40c-13,0 -23,11 -23,24 0,12 10,23 23,23 13,0 23,-11 23,-23 0,-13 -10,-24 -23,-24z"/><path class="fil0" d="M923 690c10,4 21,7 33,7 30,0 59,-17 75,-44 5,-9 9,-20 10,-31 -10,-5 -21,-7 -33,-7 -14,0 -29,3 -43,11 -14,8 -24,19 -32,32 -5,10 -9,21 -10,32zm33 46c-22,0 -44,-5 -63,-16 -9,-5 -11,-12 -11,-21 1,-21 6,-42 17,-61 10,-18 26,-35 46,-46 20,-12 42,-17 63,-17 22,0 44,6 63,17 10,5 11,13 11,22 -1,21 -7,41 -17,59 -22,39 -64,64 -109,63z"/></g><rect class="fil2" x="-313" y="-313" width="2333" height="2333"/><text x="0" y="1722" fill="#000000" font-size="5px" font-weight="bold" font-family="'Helvetica Neue', Helvetica, Arial-Unicode, Arial, Sans-serif">Created by Amir Ali</text><text x="0" y="1727" fill="#000000" font-size="5px" font-weight="bold" font-family="'Helvetica Neue', Helvetica, Arial-Unicode, Arial, Sans-serif">from the Noun Project</text></svg>